<svg width="24" height="24" viewBox="0 0 24 24" fill="none" xmlns="http://www.w3.org/2000/svg">
<path d="M17.7256 7.00521C16.6575 6.53572 15.5155 6.1945 14.3215 6.00023C14.1749 6.24929 14.0036 6.58428 13.8855 6.85078C12.6162 6.67146 11.3587 6.67146 10.1128 6.85078C9.99474 6.58428 9.81951 6.24929 9.6716 6.00023C8.47633 6.1945 7.33299 6.53696 6.26492 7.0077C4.1106 10.0662 3.5266 13.0488 3.8186 15.989C5.24746 16.9915 6.63219 17.6005 7.99356 17.999C8.32968 17.5644 8.62947 17.1024 8.88773 16.6154C8.39587 16.4398 7.92478 16.2232 7.47964 15.9716C7.59773 15.8894 7.71324 15.8035 7.82485 15.7151C10.5398 16.9081 13.4896 16.9081 16.1722 15.7151C16.285 15.8035 16.4006 15.8894 16.5174 15.9716C16.0709 16.2244 15.5986 16.4411 15.1067 16.6167C15.3649 17.1024 15.6634 17.5656 16.0008 18.0002C17.3635 17.6017 18.7495 16.9928 20.1784 15.989C20.521 12.5806 19.5931 9.62538 17.7256 7.00521ZM9.25759 14.1808C8.44259 14.1808 7.77423 13.466 7.77423 12.5955C7.77423 11.725 8.42831 11.009 9.25759 11.009C10.0869 11.009 10.7552 11.7238 10.7409 12.5955C10.7423 13.466 10.0869 14.1808 9.25759 14.1808ZM14.7394 14.1808C13.9244 14.1808 13.256 13.466 13.256 12.5955C13.256 11.725 13.9101 11.009 14.7394 11.009C15.5687 11.009 16.2371 11.7238 16.2228 12.5955C16.2228 13.466 15.5687 14.1808 14.7394 14.1808Z" fill="#5865F2"/>
</svg>
