<svg width="17" height="16" viewBox="0 0 17 16" fill="none" xmlns="http://www.w3.org/2000/svg">
<path d="M6.83317 2H10.1665C10.4317 2 10.6861 2.10536 10.8736 2.29289C11.0611 2.48043 11.1665 2.73478 11.1665 3C11.1665 3.61884 10.9207 4.21233 10.4831 4.64992C10.0455 5.0875 9.45201 5.33333 8.83317 5.33333H8.1665C7.54767 5.33333 6.95417 5.0875 6.51659 4.64992C6.079 4.21233 5.83317 3.61884 5.83317 3C5.83317 2.73478 5.93853 2.48043 6.12606 2.29289C6.3136 2.10536 6.56795 2 6.83317 2Z" stroke="white" stroke-width="1.4" stroke-linecap="round" stroke-linejoin="round"/>
<path d="M3.1665 11.3333V10.6667C3.1665 9.25218 3.72841 7.89562 4.7286 6.89543C5.72879 5.89524 7.08535 5.33333 8.49984 5.33333C9.91432 5.33333 11.2709 5.89524 12.2711 6.89543C13.2713 7.89562 13.8332 9.25218 13.8332 10.6667V11.3333C13.8332 12.0406 13.5522 12.7189 13.0521 13.219C12.552 13.719 11.8737 14 11.1665 14H5.83317C5.12593 14 4.44765 13.719 3.94755 13.219C3.44746 12.7189 3.1665 12.0406 3.1665 11.3333Z" stroke="white" stroke-width="1.4" stroke-linecap="round" stroke-linejoin="round"/>
</svg>
